<?xml version="1.0" encoding="iso-8859-1"?>
<!-- Uploaded to: SVG Repo, www.svgrepo.com, Generator: SVG Repo Mixer Tools -->
<svg fill="#000000" version="1.1" id="Layer_1" xmlns="http://www.w3.org/2000/svg" xmlns:xlink="http://www.w3.org/1999/xlink" 
	 viewBox="0 0 512 512" xml:space="preserve">
<g>
	<g>
		<path d="M144.21,232.524v0.001v63.501c0,58.89,45.679,107.3,103.432,111.593v24.456h15.672v-24.39
			c58.245-3.784,104.477-52.415,104.477-111.66v-63.501H144.21z M352.119,256.555h-15.672v15.672h15.672v23.8
			c0,53.064-43.119,96.234-96.119,96.234c-53,0-96.119-43.17-96.119-96.234v-23.8h16.716v-15.672h-16.716v-8.358h192.237V256.555z"
			/>
	</g>
</g>
<g>
	<g>
		<rect x="192.268" y="256.553" width="127.462" height="15.672"/>
	</g>
</g>
<g>
	<g>
		<path d="M256.139,0C198.849,0,152.24,46.609,152.24,103.899v120.08h15.672v-120.08h-0.001c0-14.646,3.608-28.457,9.949-40.627
			h14.408V47.601h-4.005c5.314-6.395,11.51-12.03,18.404-16.716h9.63v-5.667c2.379-1.209,4.817-2.312,7.313-3.306v8.974h16.716
			V17.119c2.745-0.499,5.532-0.871,8.358-1.11v14.875h14.627V15.988c3.184,0.258,6.322,0.679,9.403,1.267v13.629h15.672v-9.083
			c2.495,0.984,4.934,2.075,7.313,3.273v5.81h9.909c6.893,4.686,13.09,10.321,18.404,16.716h-4.283v15.672h14.686
			c6.342,12.169,9.949,25.98,9.949,40.627v120.08h15.672v-120.08C360.038,46.609,313.429,0,256.139,0z"/>
	</g>
</g>
<g>
	<g>
		<path d="M256.139,304.202c-13.148,0-23.846,10.697-23.846,23.846c0,13.149,10.697,23.847,23.846,23.847
			c13.149,0,23.847-10.697,23.847-23.847C279.985,314.899,269.287,304.202,256.139,304.202z M256.139,336.223
			c-4.507,0-8.174-3.668-8.174-8.175c0-4.508,3.667-8.174,8.174-8.174s8.175,3.667,8.175,8.174
			C264.313,332.556,260.646,336.223,256.139,336.223z"/>
	</g>
</g>
<g>
	<g>
		<rect x="183.91" y="320.284" width="15.672" height="15.672"/>
	</g>
</g>
<g>
	<g>
		<rect x="207.94" y="320.284" width="15.672" height="15.672"/>
	</g>
</g>
<g>
	<g>
		<rect x="288.387" y="320.284" width="16.716" height="15.672"/>
	</g>
</g>
<g>
	<g>
		<rect x="312.416" y="320.284" width="15.672" height="15.672"/>
	</g>
</g>
<g>
	<g>
		<path d="M336.192,472.313h-0.79v-7.85h-15.672v7.85h-7.313V457.15h-15.672v15.164h-9.715
			c-2.897-11.599-12.102-20.561-23.717-23.216v-8.664h-15.672v8.995c-10.989,3.013-19.608,11.73-22.396,22.885h-45.158
			c-10.942,0-19.844,8.902-19.844,19.843c0,10.942,8.902,19.843,19.844,19.843h156.104c10.942,0,19.843-8.902,19.843-19.843
			C356.036,481.216,347.133,472.313,336.192,472.313z M256.139,463.954c6.172,0,11.544,3.246,14.272,8.359h-28.543
			C244.594,467.201,249.966,463.954,256.139,463.954z M336.192,496.328H180.088c-2.301,0-4.173-1.871-4.173-4.172
			c0-2.301,1.872-4.172,4.173-4.172h156.104c2.301,0,4.172,1.871,4.172,4.172C340.364,494.458,338.492,496.328,336.192,496.328z"/>
	</g>
</g>
<g>
	<g>
		<rect x="176.597" y="207.449" width="15.672" height="15.672"/>
	</g>
</g>
<g>
	<g>
		<rect x="199.582" y="207.449" width="16.716" height="15.672"/>
	</g>
</g>
<g>
	<g>
		<rect x="223.611" y="207.449" width="16.716" height="15.672"/>
	</g>
</g>
<g>
	<g>
		<rect x="248.686" y="207.449" width="14.627" height="15.672"/>
	</g>
</g>
<g>
	<g>
		<rect x="272.715" y="207.449" width="15.672" height="15.672"/>
	</g>
</g>
<g>
	<g>
		<rect x="295.7" y="207.449" width="16.716" height="15.672"/>
	</g>
</g>
<g>
	<g>
		<rect x="319.73" y="207.449" width="16.716" height="15.672"/>
	</g>
</g>
<g>
	<g>
		<rect x="176.597" y="176.106" width="15.672" height="15.672"/>
	</g>
</g>
<g>
	<g>
		<rect x="199.582" y="176.106" width="16.716" height="15.672"/>
	</g>
</g>
<g>
	<g>
		<rect x="223.611" y="176.106" width="16.716" height="15.672"/>
	</g>
</g>
<g>
	<g>
		<rect x="248.686" y="176.106" width="14.627" height="15.672"/>
	</g>
</g>
<g>
	<g>
		<rect x="272.715" y="176.106" width="15.672" height="15.672"/>
	</g>
</g>
<g>
	<g>
		<rect x="295.7" y="176.106" width="16.716" height="15.672"/>
	</g>
</g>
<g>
	<g>
		<rect x="319.73" y="176.106" width="16.716" height="15.672"/>
	</g>
</g>
<g>
	<g>
		<rect x="176.597" y="143.718" width="15.672" height="15.672"/>
	</g>
</g>
<g>
	<g>
		<rect x="199.582" y="143.718" width="16.716" height="15.672"/>
	</g>
</g>
<g>
	<g>
		<rect x="223.611" y="143.718" width="16.716" height="15.672"/>
	</g>
</g>
<g>
	<g>
		<rect x="248.686" y="143.718" width="14.627" height="15.672"/>
	</g>
</g>
<g>
	<g>
		<rect x="272.715" y="143.718" width="15.672" height="15.672"/>
	</g>
</g>
<g>
	<g>
		<rect x="295.7" y="143.718" width="16.716" height="15.672"/>
	</g>
</g>
<g>
	<g>
		<rect x="319.73" y="143.718" width="16.716" height="15.672"/>
	</g>
</g>
<g>
	<g>
		<rect x="176.597" y="111.33" width="15.672" height="15.672"/>
	</g>
</g>
<g>
	<g>
		<rect x="199.582" y="111.33" width="16.716" height="15.672"/>
	</g>
</g>
<g>
	<g>
		<rect x="223.611" y="111.33" width="16.716" height="15.672"/>
	</g>
</g>
<g>
	<g>
		<rect x="248.686" y="111.33" width="14.627" height="15.672"/>
	</g>
</g>
<g>
	<g>
		<rect x="272.715" y="111.33" width="15.672" height="15.672"/>
	</g>
</g>
<g>
	<g>
		<rect x="295.7" y="111.33" width="16.716" height="15.672"/>
	</g>
</g>
<g>
	<g>
		<rect x="319.73" y="111.33" width="16.716" height="15.672"/>
	</g>
</g>
<g>
	<g>
		<rect x="176.597" y="79.987" width="15.672" height="15.672"/>
	</g>
</g>
<g>
	<g>
		<rect x="199.582" y="79.987" width="16.716" height="15.672"/>
	</g>
</g>
<g>
	<g>
		<rect x="223.611" y="79.987" width="16.716" height="15.672"/>
	</g>
</g>
<g>
	<g>
		<rect x="248.686" y="79.987" width="14.627" height="15.672"/>
	</g>
</g>
<g>
	<g>
		<rect x="272.715" y="79.987" width="15.672" height="15.672"/>
	</g>
</g>
<g>
	<g>
		<rect x="295.7" y="79.987" width="16.716" height="15.672"/>
	</g>
</g>
<g>
	<g>
		<rect x="319.73" y="79.987" width="16.716" height="15.672"/>
	</g>
</g>
<g>
	<g>
		<rect x="199.582" y="47.602" width="16.716" height="15.672"/>
	</g>
</g>
<g>
	<g>
		<rect x="223.611" y="47.602" width="16.716" height="15.672"/>
	</g>
</g>
<g>
	<g>
		<rect x="248.686" y="47.602" width="14.627" height="15.672"/>
	</g>
</g>
<g>
	<g>
		<rect x="272.715" y="47.602" width="15.672" height="15.672"/>
	</g>
</g>
<g>
	<g>
		<rect x="295.7" y="47.602" width="16.716" height="15.672"/>
	</g>
</g>
</svg>